optRun
version=1
nRows=16
nColumns=21
inDegrees=no
endheader
time	r_shoulder_elev	r_elbow_flex	r_shoulder_elev_u	r_elbow_flex_u	TRIlong.activation	TRIlong.fiber_length	TRIlat.activation	TRIlat.fiber_length	TRImed.activation	TRImed.fiber_length	BIClong.activation	BIClong.fiber_length	BICshort.activation	BICshort.fiber_length	BRA.activation	BRA.fiber_length	DeltAnt.activation	DeltAnt.fiber_length	DeltPost.activation	DeltPost.fiber_length
        0.000000	        0.000000	        0.349066	        0.000000	        0.000000	        0.050000	        0.100000	        0.050000	        0.100000	        0.050000	        0.100000	        0.050000	        0.100000	        0.050000	        0.100000	        0.050000	        0.100000	        0.050000	        0.100000	        0.050000	        0.100000
        0.000000	        0.000000	        0.349066	        0.003683	       -0.007644	        0.050000	        0.100019	        0.050000	        0.100000	        0.050000	        0.100000	        0.050000	        0.100007	        0.050000	        0.100012	        0.050000	        0.100000	        0.050000	        0.100100	        0.050000	        0.100006
        0.000000	        0.000000	        0.349066	        0.007359	       -0.015276	        0.050000	        0.100038	        0.050000	        0.100000	        0.050000	        0.100000	        0.050000	        0.100013	        0.050000	        0.100024	        0.050000	        0.100000	        0.050000	        0.100199	        0.050000	        0.100013
        0.000000	        0.000000	        0.349066	        0.011030	       -0.022895	        0.050000	        0.100056	        0.050000	        0.100000	        0.050000	        0.100000	        0.050000	        0.100020	        0.050000	        0.100036	        0.050000	        0.100000	        0.050000	        0.100298	        0.050000	        0.100019
        0.000000	        0.000000	        0.349066	        0.032957	       -0.068411	        0.050000	        0.100169	        0.050000	        0.100000	        0.050000	        0.100000	        0.050000	        0.100060	        0.050000	        0.100109	        0.050000	        0.100000	        0.050000	        0.100888	        0.050000	        0.100058
        0.000000	        0.000000	        0.349066	        0.054670	       -0.113483	        0.050000	        0.100281	        0.050000	        0.100000	        0.050000	        0.100000	        0.050000	        0.100099	        0.050000	        0.100182	        0.050000	        0.100000	        0.050000	        0.101469	        0.050000	        0.100096
        0.000000	        0.000000	        0.349066	        0.076170	       -0.158113	        0.050000	        0.100392	        0.050000	        0.100000	        0.050000	        0.100000	        0.050000	        0.100139	        0.050000	        0.100254	        0.050000	        0.100000	        0.050000	        0.102042	        0.050000	        0.100134
        0.000000	        0.000000	        0.349066	        0.097459	       -0.202305	        0.050000	        0.100504	        0.050000	        0.100000	        0.050000	        0.100000	        0.050000	        0.100179	        0.050000	        0.100326	        0.050000	        0.100000	        0.050000	        0.102606	        0.050000	        0.100172
        0.000001	        0.000000	        0.349066	        0.206305	       -0.428264	        0.050000	        0.101083	        0.050000	        0.100000	        0.050000	        0.100000	        0.050000	        0.100386	        0.050000	        0.100704	        0.050000	        0.099999	        0.050000	        0.105453	        0.050000	        0.100369
        0.000001	        0.000000	        0.349065	        0.309791	       -0.643113	        0.050000	        0.101652	        0.050000	        0.100000	        0.050000	        0.100000	        0.050000	        0.100593	        0.050000	        0.101077	        0.050000	        0.099999	        0.050000	        0.108103	        0.050000	        0.100560
        0.000002	        0.000000	        0.349065	        0.408273	       -0.847587	        0.050000	        0.102211	        0.050000	        0.099999	        0.050000	        0.099999	        0.050000	        0.100798	        0.050000	        0.101446	        0.050000	        0.099998	        0.050000	        0.110576	        0.050000	        0.100747
        0.000002	        0.000001	        0.349065	        0.502084	       -1.042375	        0.050000	        0.102760	        0.050000	        0.099999	        0.050000	        0.099999	        0.050000	        0.101002	        0.050000	        0.101811	        0.050000	        0.099998	        0.050000	        0.112892	        0.050000	        0.100930
        0.000003	        0.000001	        0.349063	        0.739479	       -1.535368	        0.050000	        0.104228	        0.050000	        0.099999	        0.050000	        0.099999	        0.050000	        0.101560	        0.050000	        0.102797	        0.050000	        0.099996	        0.050000	        0.118593	        0.050000	        0.101411
        0.000005	        0.000002	        0.349061	        0.948520	       -1.969559	        0.050000	        0.105627	        0.050000	        0.099998	        0.050000	        0.099998	        0.050000	        0.102109	        0.050000	        0.103753	        0.050000	        0.099995	        0.050000	        0.123466	        0.050000	        0.101861
        0.000006	        0.000004	        0.349058	        1.133369	       -2.353570	        0.050000	        0.106963	        0.050000	        0.099998	        0.050000	        0.099998	        0.050000	        0.102648	        0.050000	        0.104679	        0.050000	        0.099994	        0.050000	        0.127692	        0.050000	        0.102280
        0.000007	        0.000005	        0.349055	        1.297237	       -2.694055	        0.050000	        0.108240	        0.050000	        0.099998	        0.050000	        0.099998	        0.050000	        0.103178	        0.050000	        0.105577	        0.050000	        0.099992	        0.050000	        0.131385	        0.050000	        0.102672
